<svg width="34" height="38" viewBox="0 0 34 38" fill="none" xmlns="http://www.w3.org/2000/svg">
<g filter="url(#filter0_d)">
<rect x="4" width="26" height="30" rx="4" fill="#F9F9F9"/>
</g>
<g filter="url(#filter1_d)">
<path fill-rule="evenodd" clip-rule="evenodd" d="M19.5 12C19.5 13.3807 18.3807 14.5 17 14.5C15.6193 14.5 14.5 13.3807 14.5 12C14.5 10.6193 15.6193 9.5 17 9.5C18.3807 9.5 19.5 10.6193 19.5 12ZM21 12C21 14.2091 19.2091 16 17 16C14.7909 16 13 14.2091 13 12C13 9.79086 14.7909 8 17 8C19.2091 8 21 9.79086 21 12ZM15 17.25C12.9289 17.25 11.25 18.9289 11.25 21V22H12.75V21C12.75 19.7574 13.7574 18.75 15 18.75H19C20.2426 18.75 21.25 19.7574 21.25 21V22H22.75V21C22.75 18.9289 21.0711 17.25 19 17.25H15Z" fill="black"/>
</g>
<defs>
<filter id="filter0_d" x="0" y="0" width="34" height="38" filterUnits="userSpaceOnUse" color-interpolation-filters="sRGB">
<feFlood flood-opacity="0" result="BackgroundImageFix"/>
<feColorMatrix in="SourceAlpha" type="matrix" values="0 0 0 0 0 0 0 0 0 0 0 0 0 0 0 0 0 0 127 0"/>
<feOffset dy="4"/>
<feGaussianBlur stdDeviation="2"/>
<feColorMatrix type="matrix" values="0 0 0 0 0 0 0 0 0 0 0 0 0 0 0 0 0 0 0.25 0"/>
<feBlend mode="normal" in2="BackgroundImageFix" result="effect1_dropShadow"/>
<feBlend mode="normal" in="SourceGraphic" in2="effect1_dropShadow" result="shape"/>
</filter>
<filter id="filter1_d" x="7.25" y="8" width="19.5" height="22" filterUnits="userSpaceOnUse" color-interpolation-filters="sRGB">
<feFlood flood-opacity="0" result="BackgroundImageFix"/>
<feColorMatrix in="SourceAlpha" type="matrix" values="0 0 0 0 0 0 0 0 0 0 0 0 0 0 0 0 0 0 127 0"/>
<feOffset dy="4"/>
<feGaussianBlur stdDeviation="2"/>
<feColorMatrix type="matrix" values="0 0 0 0 0 0 0 0 0 0 0 0 0 0 0 0 0 0 0.25 0"/>
<feBlend mode="normal" in2="BackgroundImageFix" result="effect1_dropShadow"/>
<feBlend mode="normal" in="SourceGraphic" in2="effect1_dropShadow" result="shape"/>
</filter>
</defs>
</svg>
